<svg id="Capa_1" enable-background="new 0 0 512 512" height="512" viewBox="0 0 512 512" width="512" xmlns="http://www.w3.org/2000/svg"><path d="m179.765 236.667h152.471c44.369 0 70.8-50.61 48.094-86.943l-77.28-123.647c-21.756-34.807-72.391-34.731-94.1 0l-77.279 123.647c-22.77 36.435 3.617 86.943 48.094 86.943zm-14.174-65.743 77.279-123.647c6.071-9.714 20.203-9.692 26.26 0l77.279 123.646c5.461 8.739-.207 16.632-.371 17.277-2.655 5.222-7.944 8.466-13.803 8.466h-152.47c-11.122 0-14.431-10.034-14.846-10.519-2.446-4.812-2.19-10.645.672-15.223zm228.076 104.409c-65.25 0-118.334 53.084-118.334 118.333 0 65.25 53.084 118.333 118.334 118.333 65.249.001 118.333-53.083 118.333-118.332 0-65.25-53.084-118.334-118.333-118.334zm0 196.667c-43.193 0-78.334-35.14-78.334-78.333s35.141-78.333 78.334-78.333 78.333 35.14 78.333 78.333-35.14 78.333-78.333 78.333zm-217-196.667h-116.667c-33.084 0-60 26.916-60 60v116.667c0 33.084 26.916 60 60 60h116.667c33.084 0 60-26.916 60-60v-116.667c0-33.083-26.916-60-60-60zm20 176.667c0 11.028-8.972 20-20 20h-116.667c-11.028 0-20-8.972-20-20v-116.667c0-11.028 8.972-20 20-20h116.667c11.028 0 20 8.972 20 20z"/></svg>